<svg xmlns="http://www.w3.org/2000/svg" viewBox="0 0 447.56 397.44"><path d="M402.35,171.59c1.08-3.16,2.46-6,3-9.06.86-4.77-.07-9.21-4.42-12.22-3.37-2.34-7-2.1-10.6-.76-8.72,3.24-15.27,14-13,22.8a4.4,4.4,0,0,1,0,.83,355.13,355.13,0,0,0-62,12.63c.13-.74.23-1.24.31-1.74a27.72,27.72,0,0,0,.57-3.91c.07-6.6-5.17-10.35-11.46-8.35-6.91,2.2-13.85,11.81-9.94,20.5l-27.21,10.81c-.46-8.15,1.35-15.4,6.62-21.68,6.67-7.95,15-13.65,24-18.5,16.66-9,34.6-14.38,52.93-18.58,19.23-4.41,38.67-7.09,58.46-6.36,13.91.52,27.48,2.69,40.1,9,7.94,3.94,15.21,8.8,20.45,16.18,5.37,7.58,6.56,15.92,4.38,25.19C452.15,174.8,427.58,171.19,402.35,171.59Z" transform="translate(-41.22 -66.28)" style="fill:#4a4090"/><path d="M258.72,253.13l26.4-16.59c-.58-.32-1.08-.63-1.62-.88-9.83-4.5-19.68-9-29.48-13.53a3.79,3.79,0,0,0-3.54,0c-8.38,4-16.78,7.91-25.17,11.86a3.29,3.29,0,0,1-1.87.44c1-.67,2-1.37,3-2a353.7,353.7,0,0,1,74.89-35.49c33.49-11.4,67.77-18.53,103.27-19,15.22-.2,30.24,1.28,44.8,5.93,14.15,4.53,27,11.33,37,22.63a19.58,19.58,0,0,1,2.32,3.22,101.91,101.91,0,0,0-28.95-15c.46.86.66,1.32.93,1.73,2.58,3.81,5.25,7.56,7.73,11.44,2.84,4.43,5.88,8.62,10.57,11.3a11.76,11.76,0,0,1,1.62,1.31.9.9,0,0,1,.27.78l-2.83-1.3c-15.56-7-32-9.9-48.94-10.75-26.06-1.31-51.65,2.11-76.92,8.15-32.2,7.7-62.92,19.28-91.73,35.71-.47.27-1,.5-1.47.75Zm-1.09-33.9a5.13,5.13,0,0,0,.76.66q15.18,7,30.38,13.9a2.17,2.17,0,0,0,1.57.21c2.8-1.32,5.56-2.74,8.42-4.17-.32-.29-.45-.48-.63-.56q-14-7.08-28-14.12a2.48,2.48,0,0,0-1.77-.16C264.89,216.31,261.42,217.72,257.63,219.23Zm17.77-6c-.21-.19,0,0,.18.15q13.38,6.92,26.78,13.78a2.16,2.16,0,0,0,1.55.28c3.12-1.29,6.2-2.68,9.31-4-.15-.28-.18-.45-.27-.5q-12.51-7-25-13.95a2.21,2.21,0,0,0-1.55-.37C282.64,210.14,279,211.75,275.4,213.27Zm53.45,4.17c-.42-.32-.62-.51-.84-.65q-11-6.75-21.89-13.49a2,2,0,0,0-1.35-.38c-4,1.16-8.08,2.38-12.12,3.58,8.18,5.26,16.37,10,24.57,14.65a2.13,2.13,0,0,0,1.57.1C322.06,220.06,325.29,218.8,328.85,217.44Zm16.45-5.2c-7.19-4.86-13.91-9.43-20.68-13.92a3,3,0,0,0-2.15-.17c-2.91.68-5.8,1.46-8.69,2.23-.95.26-1.89.59-3.22,1,7.62,4.91,14.8,9.54,22,14.13a1.82,1.82,0,0,0,1.35.26C337.56,214.68,341.19,213.53,345.3,212.24ZM361.69,208c-.15-.34-.16-.51-.25-.57q-8.78-6.57-17.56-13.12a2.23,2.23,0,0,0-1.5-.53c-4.28.81-8.54,1.71-13.33,2.68,6.94,5,13.36,9.61,19.8,14.21a1.39,1.39,0,0,0,1,.28C353.76,210,357.7,209,361.69,208Zm17.2-3.5c-.14-.27-.19-.51-.33-.62q-7.81-6.47-15.67-12.88a2.29,2.29,0,0,0-1.49-.59c-4.23.62-8.45,1.33-12.79,2,.21.49.23.65.33.73,5.49,4.39,11,8.79,16.52,13.14a2.44,2.44,0,0,0,1.71.49C371.06,206.08,375,205.28,378.89,204.49Zm17.47-2.22c-.09-.34-.08-.51-.16-.58q-7.08-6.47-14.2-12.9a2.11,2.11,0,0,0-1.24-.66c-4.33.39-8.65.86-13.51,1.37,5.54,4.87,10.6,9.33,15.67,13.76a1.72,1.72,0,0,0,1.09.51C388.12,203.31,392.22,202.78,396.36,202.27Zm17.88-1.11c-3.08-3.08-6.26-5.67-8.68-8.83-3.54-4.61-7.81-6.2-13.38-5.1a46.25,46.25,0,0,1-5.69.39c4.91,4.79,9.38,9.17,13.9,13.51a2.51,2.51,0,0,0,1.63.7C406,201.67,409.9,201.41,414.24,201.16Zm17.24.61c-.5-.66-.84-1.16-1.24-1.61-2.46-2.74-5.23-5.28-7.34-8.27-2.75-3.9-6.24-5.32-10.83-4.91-2,.18-4,0-6.58,0,4.5,4.86,8.56,9.25,12.64,13.62a2.15,2.15,0,0,0,1.24.65C423.31,201.43,427.25,201.58,431.48,201.77Zm-7.17-14.18a10.13,10.13,0,0,0,.65,1.11q5.48,6.57,11,13.12a2.33,2.33,0,0,0,1.13.84c3.93.74,7.86,1.41,12.24,2.18l-.58-.71c-3.82-4.7-7.62-9.4-11.45-14.08a2.28,2.28,0,0,0-1.11-.87C432.35,188.62,428.53,188.14,424.31,187.59Zm43,23.81c-4.57-6.25-8.83-12.09-13.11-17.93a1.67,1.67,0,0,0-.79-.64c-3.52-.9-7.05-1.77-10.58-2.64-.15.57,0,.74.1.91,3.69,4.89,7.38,9.8,11.1,14.68a3.13,3.13,0,0,0,1.25,1C459.06,208.31,462.89,209.75,467.27,211.4Z" transform="translate(-41.22 -66.28)" style="fill:#4a4090"/><path d="M408.32,131.79c.63-4.17,1-8.35,1.93-12.38a18.36,18.36,0,0,0-1.61-12.63c-5-10.6-9.55-21.38-14.22-32.12a9.21,9.21,0,0,1-.84-3.8,4.83,4.83,0,0,1,4-4.49c2.2-.41,4.08.56,5.24,2.88,5.81,11.59,11.63,23.18,17.34,34.82a5.74,5.74,0,0,0,4.31,3.63c3.75.77,7.45,1.83,11.13,2.89a3.73,3.73,0,0,0,3.47-.61q16.24-11.07,32.55-22.06c3-2,5.6-1.82,7.34.58s1.09,5.51-1.74,7.62c-10.83,8.09-21.68,16.15-32.48,24.29a6.91,6.91,0,0,0-2.06,2.74c-1.6,3.79-3,7.66-4.6,11.45-.22.54-1.24,1.22-1.7,1.1A135.4,135.4,0,0,0,409.29,132,5.32,5.32,0,0,1,408.32,131.79Z" transform="translate(-41.22 -66.28)" style="fill:#4a4090"/><path d="M401.59,102.17c1.43,3.24,2.83,6.27,4.06,9.37a2.19,2.19,0,0,1-.68,1.82c-2.68,2.33-5.37,4.67-8.22,6.79-2.17,1.62-3.8,3.5-4.18,6.2-.68,4.83-3.28,6.44-8.2,6.7-7.42.38-14.78,1.89-22.17,2.92-.75.11-1.49.24-2.52.41.35-3.57.36-7,1.08-10.29,1.58-7.11.08-13.34-3.49-19.66-5-8.86-9.22-18.15-13.78-27.25a16.46,16.46,0,0,1-.79-1.71,5.1,5.1,0,0,1,2.5-6.39c2.35-1.14,4.79-.35,6.21,2.16,3.85,6.79,7.65,13.61,11.47,20.42,2.7,4.8,5.36,9.63,8.14,14.38a3.8,3.8,0,0,0,2.17,1.59c4.2,1,8.43,1.93,12.68,2.7a4.43,4.43,0,0,0,3-.69C393.11,108.6,397.25,105.42,401.59,102.17Z" transform="translate(-41.22 -66.28)" style="fill:#4a4090"/><path d="M353.93,107.83c1.4,2.78,2.74,5.22,3.83,7.77a2.65,2.65,0,0,1-.7,2.23c-3.06,3.06-6.28,6-9.32,9a7.74,7.74,0,0,0-1.83,3.13c-.87,2.79-1.45,5.67-2.27,8.48-.21.71-.74,1.67-1.33,1.85-8.33,2.54-16.7,5-25.27,7.47,0-.58,0-1.3,0-2,.2-6.62.47-13.24.58-19.86a7,7,0,0,0-.94-3.5c-5.81-9.93-11.75-19.78-17.51-29.74a7.58,7.58,0,0,1-.76-4.51,3.6,3.6,0,0,1,3.43-2.91A4.16,4.16,0,0,1,306,87.45c5.87,8.91,11.87,17.74,17.57,26.75,1.68,2.65,3.49,4.23,6.71,4.27a28.39,28.39,0,0,1,6.62.91c2.48.64,4.18-.19,5.95-1.84C346.35,114.27,350.06,111.2,353.93,107.83Z" transform="translate(-41.22 -66.28)" style="fill:#4a4090"/><path d="M442.94,101a11.16,11.16,0,1,1-5.59-14.79A11.22,11.22,0,0,1,442.94,101Z" transform="translate(-41.22 -66.28)" style="fill:#4a4090"/><path d="M386.84,88.62A11,11,0,1,1,372.21,94,11,11,0,0,1,386.84,88.62Z" transform="translate(-41.22 -66.28)" style="fill:#4a4090"/><path d="M343.43,111.62a9.71,9.71,0,0,1-17.7-8,9.71,9.71,0,0,1,17.7,8Z" transform="translate(-41.22 -66.28)" style="fill:#4a4090"/><path d="M398.07,165.18c-.69,1.1-1.28,2-1.78,2.87-2.55,4.62-7.06,4.25-11.32,4.4-.4,0-1.08-.71-1.2-1.19a9.84,9.84,0,0,1-.36-3.48A15.1,15.1,0,0,1,391.7,156c1.88-1,4-1.65,5.92-.17s1.75,3.55,1.46,5.57A30.49,30.49,0,0,1,398.07,165.18Z" transform="translate(-41.22 -66.28)" style="fill:#4a4090"/><path d="M298.94,182.92c2-3.1,4.12-5.57,7.55-6.62,3-.9,4.78.38,5,3.45a9,9,0,0,1-6,9.13c-1.39.46-2.81.85-4.15,1.42-1.62.69-2.59,0-2.69-1.47A47,47,0,0,1,298.94,182.92Z" transform="translate(-41.22 -66.28)" style="fill:#4a4090"/><path d="M479.46,289.13l-43,15.82c-4.44,1.63-9.06,2.88-13.3,4.92s-7.43.9-10.82-2.08c-20.45-18-49.66-17.82-69.21,1-8,7.74-14.83,16.79-22.11,25.32-25.49,29.83-50.7,59.92-76.51,89.48-20.27,23.2-46.17,35.76-77,38.43A115.86,115.86,0,0,1,42.44,363C33.1,298.49,78.51,238.66,143,230.75c35.61-4.38,66.86,5.61,93.62,29.53.51.45.92,1,2,2.25l-41.76,49c-1.76-1.43-3.22-2.58-4.62-3.78C162.71,282.45,117.8,295.88,108,333c-6,22.79,4.54,47.21,25.12,58.18,21.73,11.59,48,7.31,63.67-11,22.28-25.89,44.23-52.07,66.3-78.15,9.85-11.63,19.24-23.69,29.57-34.87,18.48-20,41.38-32.6,68.41-36,50.31-6.34,89.23,12.76,117.2,54.77a9.25,9.25,0,0,1,.79,1.36A11.57,11.57,0,0,1,479.46,289.13Z" transform="translate(-41.22 -66.28)" style="fill:#4a4090"/><path d="M329.75,359.42c4,11,9.4,20,18.3,26.66,19.6,14.71,46.3,13.57,64.15-3.22,3.08-2.89,5.66-3.61,9.75-2.06,18.36,6.92,36.87,13.48,55.31,20.17,1.31.47,2.58,1,4.59,1.79-1.31,2.13-2.39,4-3.59,5.83-25.37,38.22-61.18,57.05-106.83,55C335.93,462,307,445.94,284.93,418c-1.57-2-2.8-3.63-.48-6.31,14.23-16.42,28.27-33,42.38-49.52C327.49,361.36,328.32,360.74,329.75,359.42Z" transform="translate(-41.22 -66.28)" style="fill:#4a4090"/></svg>